<?xml version="1.0" encoding="utf-8"?>
<!-- Generator: Adobe Illustrator 24.1.1, SVG Export Plug-In . SVG Version: 6.00 Build 0)  -->
<svg version="1.1" id="svg2652" xmlns:svg="http://www.w3.org/2000/svg"
	 xmlns="http://www.w3.org/2000/svg" xmlns:xlink="http://www.w3.org/1999/xlink" x="0px" y="0px" viewBox="0 0 688 688"
	 style="enable-background:new 0 0 688 688;" xml:space="preserve">
<style type="text/css">
	.st0{opacity:0.5;}
	.st1{fill:#FFFFFF;}
</style>
<g id="layer1" class="st0">
	<path id="path7805" class="st1" d="M307.5,621.5c-0.2-0.4-1.3-0.8-2.4-1.1c-2.8-0.6-10.1-4.1-14.2-6.9
		c-4.7-3.1-12.2-10.6-15.7-15.6c-2.4-3.5-5.3-9.1-7.6-15c-0.5-1.3-2.3-2.4-8.6-5.3c-36.2-16.8-68.9-44.2-92.3-77.4
		c-23.9-33.9-38.2-71.9-43.3-115.1c-1.3-11-1.5-38.7-0.3-49.6c3.6-33.4,12.4-63.1,27.2-91.3c2.3-4.3,4.4-7.8,4.8-7.8
		c0.4,0,1.6,1.4,2.7,3s1.8,2.8,1.6,2.6c-0.7-0.6-2.1,1.8-7.5,12.9c-12,24.8-19.6,52-22.7,80.6c-1.1,10.8-1,37.9,0.4,49.2
		c6.3,55.3,29.4,103.6,67.8,142.1c18.2,18.3,40.2,33.8,62,44c3.9,1.8,7.4,3.6,7.7,3.9c0.3,0.3,2.5-1.1,5-3.1
		c13.7-11.5,31.6-15.8,48.8-11.8c4.9,1.1,8.4,3.9,10.4,8.2c1.6,3.5,2.4,9.3,1.5,11c-0.5,0.9-0.3,1.6,1.1,3.3
		c2.5,2.9,3.9,8.3,3.3,12.5c-0.8,6.3-5.2,12.6-10.3,14.7c-1.5,0.7-2.7,1.8-3.5,3.4c-1.5,3-3.9,5.4-7.2,7.1
		C313.1,621.6,308.1,622.5,307.5,621.5z M375.6,621.5c-4.8-1.2-9-4.6-11.1-8.9c-0.7-1.4-1.9-2.5-3.6-3.3c-1.4-0.7-3.6-2.3-4.8-3.6
		c-6.4-6.9-7.1-16.7-1.7-23.6c1.4-1.8,1.7-2.6,1.1-3.2c-0.9-1.1-0.3-6.8,1-10.1c0.5-1.3,2.3-3.7,3.9-5.4c2.7-2.7,3.4-3,7.5-3.8
		c8.1-1.4,11.9-1.6,17.9-0.8c11.5,1.4,21,5.4,29.9,12.6c2.3,1.9,4.3,3.4,4.5,3.4c0.2,0,3.7-1.6,7.9-3.6
		c49.8-23.5,90.5-66.2,112.7-118.5c9-21.2,14.8-43.7,17.6-67.9c1.3-11.4,1.5-38.4,0.4-49.2c-3.4-31.6-12.2-61.2-26.2-87.8l-3.6-6.9
		l1.6-2.2c0.9-1.2,2-2.2,2.3-2.2c0.8,0,8.2,14,12.3,23.3c10.1,22.8,17,49.5,19.7,75.8c1.2,11.5,1,38.4-0.3,49.6
		c-5.1,43.1-19.4,81.2-43.3,115.1c-23.3,33.1-55.8,60.4-91.8,77.1c-5.6,2.6-8.3,4.2-8.8,5.2c-0.4,0.8-1.7,3.7-2.9,6.4
		c-5.1,11.6-15,22-26.7,28.1c-2.8,1.5-12.5,5-13.3,4.9C377.6,622,376.6,621.7,375.6,621.5z M282.6,620.2c-1.4-0.7-3.1-2-3.9-3
		c-1.4-1.8-1.4-1.8-4.7-0.9c-4.5,1.1-7.7,0.1-11.1-3.3l-2.4-2.5l-2.7,1.1c-4.6,1.8-9.6,0.1-12.4-4.2c-1.5-2.4-1.6-2.9-1.8-13.3
		c-0.2-10.5-1.2-19.6-2.3-21.1c-0.3-0.4,4.2,1.6,10.2,4.6c5.9,3,11.3,5.5,12,5.6c0.9,0.2,2.2,2.1,4.3,6.7
		c5.3,11.1,12.2,19.4,20.9,25.3c2.6,1.8,4.8,3.5,4.8,3.7c0,0.7-3.1,2-5.8,2.3C286,621.4,284.4,621.1,282.6,620.2z M398,620.8
		c-1-0.3-2.1-0.9-2.6-1.3c-0.5-0.4-1.2-0.5-1.7-0.3c-2.2,1.3,0.4-0.7,5.4-4.1c9.2-6.3,16.4-15,21.2-25.7l2.4-5.4l10.8-5.3
		c6-2.9,11.3-5.4,11.8-5.6c0.9-0.4,0.9,0,0.1,4.3c-0.5,2.8-1,9.4-1.1,16.1c-0.2,11-0.3,11.5-1.8,13.9c-2.8,4.3-7.4,5.9-12.3,4.1
		l-2.9-1l-1.7,2c-1.9,2.3-5.8,4.4-8.4,4.4c-0.9,0-2.7-0.4-4-1c-2.3-1-2.3-1-3.8,1C406.7,620.5,402.1,622.1,398,620.8z M230,603.6
		c-3.7-1-5.1-1.9-7.8-4.7c-2.6-2.7-3-2.9-7-3.3c-5-0.5-9.4-2.6-12.6-6.1c-1.6-1.7-3.4-2.8-5.7-3.5c-6.6-2-12.6-8.2-14.6-15.1
		c-0.9-3.2-1.1-6.1-0.3-5.5c0.3,0.2,1.4-1.6,2.4-4c3.2-7.2,4.8-13.5,5.7-21.8c0.3-2.6,0.7-4.8,0.9-5s2.3,1.5,4.6,3.7
		c9.3,9.1,24.2,20.6,36.4,28.2l6.8,4.3l1.1,5.8c0.6,3.2,1.2,9.9,1.4,14.9l0.4,9.1l-1.6,1.5C238.3,603.9,233.5,604.5,230,603.6z
		 M449.5,603.4c-2-0.6-2.4-1-2.7-3c-0.6-3.2,0.2-16.6,1.4-23.7l1-5.9l6.9-4.3c12.7-7.9,27.9-19.7,36.7-28.6c2.5-2.5,4.5-4.5,4.5-4.5
		s0.2,1.7,0.3,3.9c0.4,5.3,1.9,13,3.6,18.1c1.6,4.9,3.9,9.8,4.9,10.5c1.9,1.2-3,12.4-6.6,15.2c-4.1,3.2-6.5,4.5-8.6,4.9
		c-1.8,0.3-3.3,1.2-5.5,3.4c-3.9,3.9-7.4,5.6-12.7,6.1c-4,0.4-4.4,0.6-7,3.3c-1.5,1.6-3.7,3.2-4.9,3.8
		C457.9,603.9,452.3,604.3,449.5,603.4z M257.4,566.1l-10.4-5.2l7-3.1c3.8-1.7,10.1-5.3,14-7.9c6.5-4.4,7.3-4.8,10.3-4.8
		c2.4,0,3.8,0.4,5.7,1.7c1.3,0.9,3.4,1.9,4.6,2.1c1.2,0.3,3.1,1.3,4.3,2.2c1.2,1,3.2,1.9,4.5,2.1c2.6,0.4,6,1.8,6,2.4
		c0,0.2-1.8,0.6-4.1,0.8c-9.6,1-22.4,6.9-30.9,14.3C268.1,571.1,263.4,569.1,257.4,566.1z M418.8,570.7c-0.8-1.4-7.1-5.9-11.4-8.1
		c-5.8-3-13.6-5.6-18.6-6.1c-2.4-0.2-4.5-0.7-4.7-1c-0.2-0.3,0.2-0.6,0.8-0.6c0.6,0,1.4-0.3,1.8-0.7c0.4-0.4,1.8-0.7,3.3-0.8
		c2-0.1,3.2-0.6,4.8-2.1c1.2-1.1,3.2-2.2,4.4-2.4c1.2-0.2,3.3-1.2,4.7-2.1c1.8-1.3,3.1-1.7,5.7-1.7c3,0,3.8,0.4,10,4.6
		c3.7,2.5,9.7,6,13.4,7.7c3.7,1.7,6.8,3.3,7,3.5c0.3,0.3-19.8,10.7-20.6,10.7C419.4,571.5,419.1,571.2,418.8,570.7z M170.3,564.8
		c-3.7-1-8.2-3.7-10.6-6.4c-0.8-0.9-2.7-2.2-4.1-2.8c-5.9-2.7-11.5-9.3-13.2-15.6c-0.7-2.4-1.1-3-2.8-3.6c-3.5-1.2-7.6-4.9-9.4-8.5
		c-2-4.1-2.3-10.8-0.6-14.8c1.1-2.5,7-9.1,7.6-8.4c0.6,0.7,7.9-11,10.7-17.1c1.5-3.4,2.9-6.2,3.1-6.2c0.2,0,0.8,1.1,1.5,2.4
		c4.2,8.7,19.6,30,30.1,41.5l5.7,6.3l-0.4,4.8c-0.8,9.6-2.2,15-6.6,25.7l-1.5,3.7l-3.1,0C175.1,565.7,172.2,565.3,170.3,564.8z
		 M508.2,564.6c-1.3-1.5-5-10.7-6.3-15.8c-0.5-2.1-1.3-6.9-1.7-10.6l-0.7-6.7l5.3-5.8c10.2-11.1,20.8-25.3,28.1-37.6
		c2-3.4,3.8-6.2,4-6.2c0.2,0,1.5,2.5,3,5.6c3,6.3,10,17.4,11,17.4c1.4,0,5.8,4.6,7.1,7.5c2.1,4.6,2,11-0.3,15.4
		c-2,3.8-5.7,7.2-9.1,8.3c-1.9,0.7-2.4,1.2-3,3.7c-1.7,6.4-7.3,12.9-13.4,15.7c-1.6,0.7-3.4,2-4,2.8
		C524.1,563.7,511,567.8,508.2,564.6z M236.5,554.4c-12.2-7.9-22.7-16.2-33-26c-5.6-5.3-6-5.8-4.6-6.2c0.8-0.2,4.7-1.2,8.7-2.1
		c4-0.9,10.8-3.1,15-4.8s8.6-3.3,9.6-3.5c3.9-0.9,10.1,2.4,12.2,6.4c0.7,1.3,1.6,2.2,2.3,2.2c3.3,0,9.2,5.4,10.1,9.3
		c0.3,1.1,1,1.5,2.9,1.9c5.4,0.9,9.8,4.8,11.4,10.1l0.7,2.5l-6,4c-8.9,6-18.6,10.7-21.7,10.5C243.5,558.7,240.1,556.7,236.5,554.4z
		 M439.4,557.5c-4.7-1.7-11.2-5.3-17.4-9.5l-5.7-3.9l0.7-2.5c1.5-5.3,6.2-9.5,11.2-10c2-0.2,2.5-0.6,3.3-2.4
		c1.9-4.6,6.6-8.9,9.7-8.9c0.5,0,1.6-0.9,2.3-2.1c2.6-3.9,5.7-5.9,9.6-6.6c2-0.3,3.9,0.2,11.1,3.1c7.6,3.1,20.5,6.9,23.3,6.9
		c0.5,0,1.3,0.4,1.7,0.9c0.5,0.7-0.5,2-5,6.3c-6.9,6.5-13.1,11.7-20.7,17.3c-7.8,5.8-18.6,12.6-19.9,12.6
		C443,558.7,441.1,558.1,439.4,557.5z M483.7,518.1c-7.3-1.7-16-4.5-23.7-7.7c-1.4-0.6-1.4-4.3,0.1-7.7c1.1-2.4,4.5-6,5.6-6
		c0.3,0,0.7-1.1,0.9-2.4c0.9-4.7,2.4-6.9,8.3-11.9c0.7-0.6,1.3-1.8,1.3-2.7c0-2.3,5.3-7.7,7.9-8.1c1.1-0.2,5.4,0.2,9.6,0.9
		c5.2,0.8,11.6,1.2,20.3,1.3l12.8,0.1l-3.9,6.5c-7.1,11.9-17.3,25.7-26.1,35.2l-4.2,4.5L483.7,518.1z M189.8,514.1
		c-6-6.8-11.1-13.3-16.5-21c-5.2-7.4-12.4-19.5-12-19.9c0.2-0.2,0.3,0,0.3,0.3c0,1.2,23.9,0.5,32.5-1c4.1-0.7,8.4-1.1,9.6-0.9
		c2.8,0.4,8.1,5.7,8.1,8.1c0,1.6,0.2,1.9,4.5,5.6c2.6,2.2,4.4,5.4,5.1,8.9c0.3,1.5,1,2.6,2.4,3.5c1.1,0.7,2.6,2.2,3.3,3.4
		c1.8,2.7,2.5,7.6,1.4,8.8c-2.2,2.2-27.2,9.8-32.5,9.9C195.2,519.7,192.9,517.7,189.8,514.1z M123.2,510.2c-5-1-10.5-5.5-12.3-10
		c-0.4-1.1-1.8-2.6-3-3.5c-4.9-3.4-9-10.6-9.8-17.2c-0.4-3-0.8-3.8-3.5-6.6c-3.1-3.2-4.9-7.5-4.9-11.5c0-3.9,3.6-11,6.1-12
		c1.6-0.6,7.9-5.1,13.4-9.5c5.2-4.2,17-16.3,17-17.5c0-0.4,0.3-0.7,0.6-0.7c0.3,0,0.6,0.5,0.6,1.1c0,0.6,0.8,3.9,1.8,7.3
		c3.9,13.4,10,28.6,16.5,41.4l3.4,6.7l-1.4,3.5c-3.1,7.8-9.1,17.6-15.6,25C128.8,511,128.2,511.2,123.2,510.2z M555.6,506.9
		c-6.7-7.8-12.5-17.3-15.5-24.9l-1.4-3.5l3.4-6.7c6.5-12.8,12.7-28.5,17.1-43.4l1.9-6.6l1.7,2.4c4.9,6.9,23.9,23.3,29.2,25.3
		c2.5,0.9,6.1,8.1,6.1,12c0,4-1.9,8.3-4.9,11.5c-2.7,2.7-3.1,3.6-3.5,6.6c-0.8,6.6-4.9,13.8-9.8,17.2c-1.2,0.9-2.7,2.6-3.2,3.9
		c-2.2,5.1-8.2,9.3-14.1,9.8l-3.9,0.4L555.6,506.9z M163.1,471.2l-3.7-0.4l-2.9-5.8c-6.3-12.4-12.2-27.6-16-41
		c-2.1-7.4-2.1-7.7-1.1-6.8c2.8,2.4,36.4,7,39,5.3c1.7-1.1,5.6,0.1,7.9,2.5c2.1,2.1,3.4,6.3,2.9,8.9c-0.3,1.4,0,1.9,1.2,2.6
		c3.5,1.9,6.6,9.6,5.6,13.6c-0.3,1,0.1,2,1.4,3.4c2.5,2.6,3.5,6.8,2.5,10.4c-1.2,4.6-2.7,5.7-9,6.5
		C184.4,471.4,168.3,471.8,163.1,471.2z M502.9,471.1c-10.9-1.1-11.9-1.3-13.4-3.7c-2.9-4.5-2.5-9.9,1.1-13.9
		c1.2-1.4,1.6-2.3,1.4-3.4c-1.1-4.2,2.4-12,6-13.7c1.4-0.6,1.6-1,1.1-1.6c-0.8-1-0.2-5.5,1.1-7.8c2.1-3.6,3.2-3.9,13.1-4.2
		c9.4-0.2,18.7-1.4,28-3.6c8.5-1.9,8.2-2.3,5.8,6.1c-2.6,8.9-5.6,17.6-8.8,25c-3.6,8.4-9.3,19.9-10.1,20.4
		C527.1,471.5,509.3,471.7,502.9,471.1z M90.4,446.4c-2.3-0.4-5.5-3-7.3-5.6c-1.2-1.8-1.6-3.3-1.7-6.2c-0.1-3.4-0.4-4.2-2.5-6.8
		c-3.6-4.6-4.8-7.9-4.9-13.9c-0.1-4.8-0.3-5.4-2.1-7.7c-4.2-5.4-4.8-12.3-1.6-18c2.2-3.8,4.4-5.3,13.8-9.1
		c11.9-4.8,19.8-9,28.9-15.5c2.4-1.7,4.7-3.1,5-3.1c0.3,0,0.9,5.5,1.3,12.1c0.8,13.4,2.4,25.9,4.8,37.1c0.8,4,1.7,7.8,1.8,8.3
		c0.4,1.2-10.5,13.2-16.8,18.5C98.3,445.9,95.4,447.3,90.4,446.4z M587.7,443.6c-7.4-5.3-13.7-11-20-17.9l-5.8-6.4l1.5-6.8
		c2.4-11.1,4.5-27.2,5.4-40.3l0.8-12.3l4.3,3.1c9.3,6.6,18.1,11.4,30,16.2c9.2,3.7,11.7,5.4,13.9,9.2c3.2,5.6,2.5,12.7-1.7,17.9
		c-1.9,2.4-2,2.8-2.1,7.7c-0.1,6-1.4,9.7-5,13.8c-2.1,2.4-2.3,3-2.4,6.7c-0.1,3.1-0.4,4.5-1.7,6.4c-2.3,3.4-5.4,5.4-9.2,5.9
		C592.4,446.9,592.2,446.9,587.7,443.6z M165.9,419.9c-5.5-0.5-14.8-2.1-23.1-3.9c-2-0.4-4-1.2-4.4-1.7c-2.6-2.8-7.2-36.4-7.2-52.6
		c0-4.9,0-5,1.5-5c0.8,0,5.8,1.1,11,2.5c9.9,2.6,28.3,6,29.8,5.4c1.2-0.5,4.8,2.2,6.5,4.7c2.1,3.2,2.4,7,0.9,10.6l-1.3,2.9l1.5,1.8
		c3,3.6,3.4,9.6,0.9,13.8c-1.1,1.8-1.1,1.9,0.7,4.4c3.6,5.1,3,10.7-1.6,15.2C178.1,420.9,177.6,421,165.9,419.9z M507.8,419.8
		c0-0.4-0.8-1.6-1.8-2.7c-3.7-4.1-4.1-9-1.1-13.7l2.1-3.2l-1.3-2.1c-2.3-3.9-1.7-9.3,1.5-14.1c0.6-0.8,0.5-1.8-0.4-4.5
		c-1.3-4-1-6.9,1.1-10.2c1.6-2.5,5.1-5.1,6.2-4.7c1.4,0.6,20.4-2.9,30-5.5c5.2-1.4,10.2-2.5,11-2.5c1.5,0,1.5,0.1,1.5,5
		c0,12.2-2.2,31.9-5.2,46.2l-1.4,6.7l-3.1,0.8C532.4,419.2,507.8,422,507.8,419.8z M79.6,377.8c-0.2-0.3-1.2-0.7-2.2-0.9
		c-2.6-0.5-6-3.3-7.7-6.4c-1.7-3-2.5-8.3-1.7-10.6c0.4-1.2,0.3-2.3-0.7-4.5c-1.7-4-1.7-12,0-15.9c1.2-2.8,1.2-2.9,0-6.4
		c-2.9-8.7,2.5-18.1,11.2-19.9c1.6-0.3,5-0.8,7.6-1c10.3-0.9,25.2-5.3,35.2-10.5l4.9-2.5l-0.8,3.6c-3.1,13.5-5.4,30.4-6.1,46.3
		c-0.2,4.8-0.6,8.8-0.9,8.8c-0.3,0-3.6,2.1-7.3,4.7c-7.7,5.3-17.1,10.5-24.9,13.6C80.3,378.6,80.1,378.7,79.6,377.8z M599.8,375.3
		c-9.1-4-15.3-7.6-23.6-13.3l-6.9-4.8l-0.4-8.5c-0.8-15.9-3.3-34.7-6.1-45.7c-0.5-1.8-0.7-3.4-0.6-3.4c0.1,0,2.2,1,4.6,2.3
		c11.4,5.9,26.2,9.8,41,10.8c4.6,0.3,8.9,3,11.6,7.4c2.5,4.1,3,8.2,1.4,12.9c-1.2,3.5-1.2,3.6,0,6.4c1.7,3.9,1.7,12,0,15.9
		c-0.9,2.2-1.1,3.3-0.7,4.5c0.9,2.4,0,7.6-1.8,10.8c-1.7,3-6.4,6.5-8.7,6.5c-0.8,0-1.6,0.3-1.8,0.6
		C607.3,378.7,607.3,378.7,599.8,375.3z M162.8,360.8c-8.3-1.5-27.5-6.2-30.2-7.4c-1.3-0.6-1.4-0.9-1.1-5.6
		c1.1-16.8,2.8-29.1,5.9-42.5l1.9-8.1l14,7.1c12.9,6.6,25.2,11.9,27.5,11.9c1.2,0,4.6,3.8,5.5,6.1c1,2.7,0.2,7-1.6,9.2
		c-1.5,1.9-1.5,2-0.6,4.8c1.6,4.9,1.4,6-2.3,11.3c-0.9,1.3-0.9,1.9-0.4,4.1c0.6,2.2,0.5,3-0.5,5.1
		C178.4,362.4,175.3,363.1,162.8,360.8z M511.2,361.5c-3.8-1.7-6.2-7-4.7-10.4c0.6-1.4,0.5-2-1.1-4.3c-2.4-3.5-2.9-6.4-1.6-10.2
		c1-3,1-3.1-0.5-4.9c-3.1-3.8-2.6-9.8,1-13.3c0.8-0.8,4.7-2.7,8.6-4.2c8.5-3.3,19.6-8.2,28.7-12.9c3.7-1.9,6.9-3.3,7-3.2
		c0.5,0.6,2.6,9.6,4.2,18c1.8,9.7,3.2,22.4,3.5,30.9l0.2,6l-2.5,0.9c-8.3,2.9-34.8,8.6-39.6,8.6C513.6,362.4,512.2,362,511.2,361.5z
		 M329.4,347.4c0-0.9,0.7-6.3,1.5-12c1.5-10,2.8-29.5,2.8-40.8l0-5.5l-4.2-2.3c-2.3-1.3-5.9-2.8-8-3.4c-4.3-1.3-5.5-2.4-6.1-5.3
		c-0.3-1.7-0.1-2.3,1.5-4c2.3-2.4,3.6-2.4,9.4-0.1c8.3,3.3,7.4,3.9,7.4-5c0-6.3,0.2-8.2,1.1-9.7c1.7-2.9,4.8-4.6,8.5-4.6
		c3.7,0,6.3,1.4,8.4,4.6c1.4,2.1,1.5,3.1,1.7,10.1l0.2,7.8l6.3-2.5c3.5-1.4,6.9-2.5,7.7-2.5s2.3,0.9,3.3,1.9c1.6,1.6,1.8,2.3,1.5,4
		c-0.6,2.9-1.9,3.9-6.9,5.6c-2.4,0.8-6.1,2.4-8.3,3.7l-3.9,2.2l0.3,5.5c0.2,3,0.6,11,1,17.7c0.4,6.7,1.4,16.9,2.2,22.7
		c0.8,5.8,1.5,11.2,1.5,12l0,1.4H344h-14.6V347.4z M183.6,314.7c-7.7-1.9-42-18.2-42.8-20.4c-0.5-1.3,4.2-15.5,8.4-25.6
		c3.1-7.5,10.7-23.1,11.8-24.2c0.3-0.3,4,2.9,8.8,7.6c4.5,4.5,12,11.2,16.6,14.9c4.6,3.7,9.7,8.1,11.3,9.8c4.5,4.7,4.8,9.4,0.8,13.3
		c-1.8,1.8-2,2.3-1.5,3.8c0.9,2.4,0.1,5.7-2,8.8c-1,1.5-1.8,3.3-1.8,4c0,2.2-1.6,5.6-3.2,6.7C188.3,314.6,185.4,315.1,183.6,314.7z
		 M499.3,314.2c-2.4-1.1-3.9-3.3-4.3-6.5c-0.2-1.4-1.2-3.7-2.3-5.2c-1.6-2.3-1.9-3.4-1.9-6.4c0-2.9-0.4-4.2-1.8-6.4
		c-1.3-2-1.8-3.6-1.8-5.8c-0.1-4.2,2.2-6.9,13-15.6c4.8-3.8,12.7-10.9,17.5-15.7c5.1-5,9.1-8.4,9.4-8.1c1.1,1.1,8.7,16.7,11.7,24.1
		c4,9.6,8.9,24.6,8.5,25.8c-0.5,1.2-27,14.7-34.8,17.7C504.9,314.9,502,315.4,499.3,314.2z M77.7,309.5c-8.3-4.4-10.7-14.6-5.3-21.9
		c1.3-1.7,1.6-2.6,1.2-3.8c-1.3-4.4,0-11.3,2.9-16.5c1.4-2.4,1.7-3.7,1.6-6.4c-0.1-2.6,0.2-4.2,1.5-6.9c2.1-4.4,4.4-6.8,8.7-9
		l3.4-1.7l10,1.1c12.2,1.4,25.5,1,37.9-1.2l8.3-1.4l-3.6,7.4c-6.5,13.4-11.8,27-15.2,39.1c-0.9,3.4-2,6.6-2.4,7.1
		c-1,1.4-9.9,5.9-16.7,8.5c-7,2.6-17.9,5.3-23.7,5.8c-2.4,0.2-4.9,0.5-5.6,0.6C80.1,310.4,78.7,310.1,77.7,309.5z M600.4,309.6
		c-11.7-1.6-24.1-5.5-34.9-11.1c-3.8-2-5.1-3-5.1-3.9c0-2-7.2-23.9-10.3-31.3c-3.7-8.8-8.8-19.2-10-20.8c-1-1.1-0.9-1.2,0.2-0.8
		c4.2,1.3,17.6,3,26.3,3.4c7.9,0.3,12.2,0.2,19.1-0.7c4.9-0.6,9.8-0.9,10.9-0.7c3.8,0.7,8.6,4.5,11,8.5c1.8,3.1,2.2,4.4,2.3,7.8
		c0.1,3.4,0.5,5,2.5,8.9c2.3,4.6,2.4,5.1,2.4,11.1c0,5.3,0.2,6.5,1.3,8.1c2.9,4.1,3.4,10.9,1,14.9c-2.5,4.1-7.2,7.9-9.6,7.6
		C606.9,310.5,603.8,310.1,600.4,309.6z M254.8,289.5c-29.6-2.4-59.9-16.4-81.4-37.4c-5.2-5.1-17.4-19.2-15.7-18.1
		c0.4,0.2,1.6-0.9,2.7-2.6c2.8-4.1,10.5-12.3,15.8-16.7c21.7-18.4,52.9-25,80.1-16.9c18.7,5.6,36.8,18.9,48.6,35.8
		c6.2,8.9,13,24.6,14.4,33.3c0.4,2.6,0.4,2.7-2.1,3.9l-2.5,1.3l-6.1-5.1c-22.8-19.2-48.9-31-78.8-35.7c-10.2-1.6-32.2-2-41.5-0.7
		c-10.4,1.4-21.3,4-22.2,5.1c-0.7,0.9-0.6,1.1,0.6,1.3c0.8,0.1,3.8-0.4,6.7-1.1c11.4-2.7,19.5-3.6,33.7-3.5c9.3,0,16,0.4,21.1,1.2
		c28.7,4.3,55.5,16.2,77.9,34.8c6.5,5.4,6.7,5.6,6.8,8.2c0.1,1.5,0.1,3.2,0.2,3.8c0.1,1.2-4.9,3.1-14.8,5.6
		C285,289.3,268.6,290.7,254.8,289.5z M413.1,289.8c-15.9-1.8-23-3.2-33.3-6.7c-5.3-1.8-5.7-2-5.1-3.2c0.4-0.7,0.6-2.3,0.5-3.5
		c-0.2-2.1,0.1-2.5,6-7.4c22.7-19.1,49.3-31,79-35.5c11.7-1.7,32.2-1.6,43.7,0.2c4.8,0.8,10.7,2,13.2,2.7c5.2,1.5,5.1,1.5,5.1,0.6
		c0-1.7-2.4-2.7-9.2-4.2c-27.9-5.9-57.1-3.9-84.1,5.7c-18.5,6.6-34.5,15.7-49.4,28.3l-6,5.1l-2.7-1.3l-2.7-1.3l1.4-5.5
		c1.8-7.1,2.6-9.2,6.4-17.6c10.4-22.6,32.2-41.5,55.9-48.6c27.2-8.1,58.2-1.5,80.1,16.9c5.1,4.3,13.4,13.2,16.2,17.3l1.9,2.9l-5,6.1
		c-24.8,30-60.6,47.7-98.9,48.8C420.1,289.9,414.2,289.9,413.1,289.8z M353,255.7c-0.5-0.2-1.7-0.9-2.6-1.6
		c-0.9-0.7-2.6-1.4-3.7-1.6c-1.1-0.2-1.9-0.6-1.8-0.9c0.1-0.2,0.2-40.5,0.2-89.4V73.3l6,4.2c24.6,16.9,40.2,41.1,46,71
		c2,10.2,2,27.6,0,38.1c-3.5,18.6-10.2,33.8-20.9,47.6C368.6,244,355.1,256.5,353,255.7z M329.4,252.4
		c-19.8-15.9-33.6-39.3-38.5-65.5c-1.9-10.2-1.9-28.5,0-38.4c2.9-15.1,8.5-28.8,17-41.8c5.9-9.1,17.6-21.1,26.6-27.4
		c3.6-2.5,7.1-4.8,7.6-5c0.9-0.3,1,8.2,1,88.9c0,50.9-0.2,89.2-0.5,89c-0.8-0.5-6,1.5-6.9,2.6C334.5,256.1,333.8,255.8,329.4,252.4z
		 M117,240.9c-9.2-0.9-20-3.7-22.4-5.8c-1.9-1.7-2-1.9-1.9-6.1c0.1-5.4,1.3-8.4,4.8-12c2.5-2.5,2.7-3.1,3.1-7
		c0.7-7.2,3.8-12.7,9.4-16.6c1.3-0.9,2.4-1.9,2.4-2.2c0-0.3,0.2-0.9,0.4-1.4c0.2-0.5,0.5-1.8,0.8-2.8c0.6-2.6,3.7-6.5,6.7-8.3
		c5.3-3.2,10.8-2.8,15.6,1.2c14,11.6,29.9,18.9,44.6,20.9c3.4,0.4,6.4,1,6.6,1.2c0.3,0.2-2,2-5,3.8c-10.6,6.6-20.8,16.5-27.6,26.6
		c-1.9,2.9-3.9,5.5-4.3,5.8C147.7,240.3,127.6,241.9,117,240.9z M554,241.1c-1.4-0.1-5.6-0.7-9.3-1.3l-6.9-1.1l-3.7-5.5
		c-7.4-11.1-18.7-22-29-28c-2.9-1.7-5.3-3.2-5.3-3.4c0-0.2,0.7-0.4,1.7-0.5c10.2-0.8,21.2-3.8,30.4-8.3c5.7-2.8,15.2-9,20.1-13.3
		c7.9-6.9,20.6-2.1,22.8,8.6c0.5,2.4,1.1,3.6,2.3,4.4c6,3.8,9.9,10.4,10.3,17.2c0.2,3.7,0.4,4.1,3,6.8c3.6,3.8,4.9,6.7,5,12.1
		c0.1,4.2,0,4.4-2.1,6.2C588.7,239,567.7,242.2,554,241.1z M387.4,221.3c-0.2-0.2,0-0.9,0.5-1.5c1.7-1.9,5.6-11,7.9-18.2
		c3.8-11.9,5-19.9,5-33.9c0-10.7-0.2-13.1-1.7-20.6c-5.8-29.3-21-53.5-43.9-69.9c-3-2.1-5.4-4-5.4-4.2c0-0.7,9.1-4.7,13-5.8
		c6.4-1.8,16.9-1.5,23.5,0.7c6.4,2.1,12.1,5.3,16.7,9.5c1.9,1.7,3.6,3,3.8,2.9c0.2-0.1,2.5-1.3,5-2.6c11.5-6,24.1-4.1,33.4,5.1
		c3.5,3.4,8,11,8,13.4c0,1.1-0.3,1.2,4.4-0.8c3.2-1.4,5-1.7,9.2-1.8c4.7,0,5.7,0.2,9.3,1.9c5.2,2.5,9.6,7.1,12,12.4
		c1.8,4,1.9,4.5,1.8,12.2c-0.2,21.6-8.2,42.9-22.6,60.4c-2.3,2.8-5.6,6.3-7.2,7.7l-3,2.6l-8.4,0.8c-4.6,0.4-10.4,1.2-13,1.8
		c-16.7,3.7-36.5,14.7-45.7,25.5C389,220.4,387.7,221.5,387.4,221.3z M294.9,215.9c-10.5-10.3-27.5-19.3-42.9-22.6
		c-2.5-0.6-8.4-1.4-13-1.8l-8.4-0.8l-3.3-2.9c-7-6.2-15.7-18.4-20.4-28.5c-6-13-9-26-9.1-39.3c-0.1-7.7,0-8.2,1.8-12.2
		c2.4-5.3,6.9-9.9,12-12.4c3.6-1.8,4.6-2,9.6-1.9c4.6,0.1,6.2,0.4,9.2,1.8c4.2,1.9,4.2,1.9,4.2,0.8c0-0.5,1-2.9,2.2-5.3
		c7.7-16,27.9-21.6,42.1-11.7c1,0.7,2.1,1.3,2.3,1.3c0.3,0,1.9-1.4,3.8-3.1c4.2-3.9,11.1-7.8,17.1-9.7c6.1-1.9,17-2.1,22.9-0.5
		c3.8,1.1,13,5.2,13,5.8c0,0.2-2.8,2.3-6.2,4.8c-22.8,16.8-37.6,40.5-43.2,69.4c-1.4,7.2-1.6,9.9-1.6,20.5s0.2,13.3,1.6,20.5
		c2.3,11.7,7.7,27.5,10.8,31.2C301.8,222,299,220,294.9,215.9z M184,198.6c-12.3-1.3-26.1-6.5-36.3-13.5c-3.1-2.1-6-3.8-6.5-3.8
		c-1.4,0-6.1-5.1-7.2-7.9c-0.5-1.3-1.1-4.1-1.4-6.1c-0.3-3.3-0.2-4.1,1.6-7.9c2.3-4.7,6.6-8.7,10.9-9.8c2.5-0.7,2.6-0.8,2.9-4
		c0.5-4.4,2.4-8.3,5.7-11.7c4.1-4.3,7.7-5.8,13.4-5.8l4.8,0l0.4-2c0.5-2.8,3.7-7,6.7-8.8c3.7-2.2,7.7-2.7,12.1-1.4l3.6,1.1l0.7,8.1
		c1.2,13.9,4.3,25.5,9.8,36.8c4.7,9.7,12.8,21.3,18.7,26.8l2.5,2.4l-2,0.3c-9.8,1.4-12.6,2-17.5,3.3c-3.1,0.8-7.4,2.3-9.6,3.2
		C193.3,199.4,192.2,199.5,184,198.6z M493,198.7c-3.9-2.3-22.2-7.1-27.3-7.1c-4.2,0-4.5-0.5-1.7-3.1c1.4-1.3,4.1-4.4,6.1-6.9
		c13.3-16.8,20.3-34.5,22.4-56.9l0.7-7.6l3.4-1.2c6.3-2.1,12.3-0.1,16.7,5.6c1,1.3,2.1,3.4,2.3,4.6l0.4,2.1l3-0.4
		c9.3-1.1,18.9,6.6,20.6,16.7c0.7,4.2,0.7,4.3,3.1,4.9c3.2,0.9,8,4.5,9.9,7.5c3.1,4.9,3.6,10.8,1.3,16.4c-1.1,2.8-6.7,8.6-8.2,8.6
		c-0.6,0-3.3,1.6-6,3.5c-10.1,7-23.9,11.8-37.1,13.1C494.5,199.5,494.2,199.5,493,198.7z"/>
</g>
</svg>
