<?xml version="1.0" encoding="utf-8"?>
<!-- Generator: Adobe Illustrator 24.1.1, SVG Export Plug-In . SVG Version: 6.00 Build 0)  -->
<svg version="1.1" id="svg2652" xmlns:svg="http://www.w3.org/2000/svg"
	 xmlns="http://www.w3.org/2000/svg" xmlns:xlink="http://www.w3.org/1999/xlink" x="0px" y="0px" viewBox="0 0 688 688"
	 style="enable-background:new 0 0 688 688;" xml:space="preserve">
<style type="text/css">
	.st0{opacity:0.5;}
	.st1{fill:#FFFFFF;}
</style>
<g id="layer1" class="st0">
	<path id="path8309" class="st1" d="M335.7,598.2v-43.2l-9.9-3.8c-5.4-2.1-17.4-6.8-26.7-10.4c-9.3-3.6-17.6-7.2-18.5-8.1
		c-2.3-2.1-2.8-6.2-1.2-9.4c1.7-3.4,4.2-5.1,7.9-5.5c2.6-0.3,5.9,0.8,25.5,8.7c12.4,5,22.6,9,22.7,9c0.1,0,0.2-18.3,0.2-40.8
		c0-31,0.2-41.1,0.8-42.1c1-1.7,4.9-3.6,7.2-3.6c1,0,3,0.6,4.5,1.4c4.9,2.5,4.8,1.4,4.8,45.8c0,31.3,0.2,39.3,0.9,39.1
		c0.5-0.2,10.8-4.3,22.8-9.1c20.2-8.1,22.2-8.8,25.1-8.3c5.4,0.8,8.7,5.7,7.5,11.3c-0.8,4.2,0.6,3.5-47.1,22.3l-9.2,3.6v43.2v43.2
		h-8.6h-8.6V598.2z M212.6,541c-31.2-2.7-60.5-12.9-87-30.2c-21-13.7-39.4-31.7-53.1-51.9l-6.5-9.5l3.3-3.4c4.8-5,15-13,22.8-17.8
		c32.8-20.7,74.7-25.4,111.6-12.7c41.9,14.5,73,48.5,83.9,91.8l1,4h-1.6c-2.2,0-5,1.1-8.1,3.2l-2.6,1.8l-2.8-2.3
		c-1.5-1.3-4.1-3.5-5.7-4.8c-1.6-1.4-4.8-3.9-7-5.5c-7.8-5.9-8.2-6.1-16.7-11.6c-2.7-1.7-6.2-4-7.8-5.2c-4-2.7-20.8-11.9-23-12.6
		c-0.9-0.3-3.1-1.3-4.8-2.2s-5-2.5-7.3-3.4c-13.1-5.4-20.7-8.3-25.6-9.8c-6.4-2-33.3-8.7-39.4-9.8c-10-1.9-25.2-3.5-37.2-3.9
		c-11.9-0.4-13.1-0.4-14.4,0.8c-0.8,0.7-1.4,1.6-1.4,2.1c0,1.3,2.1,3.2,3.2,2.8c0.5-0.2,6.5-0.1,13.2,0.3
		c10.6,0.6,18.6,1.4,37.6,4.1c9.7,1.4,41.1,10.4,53.6,15.5c27.6,11.1,55.4,27.9,77.3,46.4l4.8,4.1l-0.4,3.6c-0.4,3.3,0,5.5,2,10.1
		c0.4,0.9-0.4,1.3-4.6,2.3C251.7,541.3,231,542.6,212.6,541z M442.9,541.1c-10.2-1-28.6-4.1-29.6-5.1c-0.1-0.1,0.3-1.3,1-2.6
		c0.8-1.6,1.2-3.8,1.2-7.2l0-4.8l5-4.3c4.5-3.9,9.5-7.8,15.8-12.4c8.2-6,10.3-7.3,14.6-9.9c2.7-1.6,6.2-3.8,7.8-4.9
		c7.6-5.3,36.2-18.5,51.7-23.9c5.9-2.1,35.9-9.8,41.2-10.7c16.6-2.7,46.2-5.2,49.7-4.3c1.4,0.4,3.6-1.4,3.6-2.9
		c0-0.5-0.5-1.5-1.2-2.1c-2.2-2.2-27.8-0.6-51.4,3.1c-13.8,2.2-46.7,11.6-58.8,16.9c-2.9,1.2-7.2,3.1-9.7,4.2
		c-8.6,3.7-27.7,14.1-37,20.2c-7.9,5.2-15.2,10.2-17.6,12.1c-1.1,0.9-3.5,2.7-5.3,4c-1.8,1.3-5.2,4.1-7.6,6.1l-4.4,3.7l-3.1-2.1
		c-1.7-1.1-4.5-2.3-6.2-2.5l-3-0.5l1-3.9c3.3-13.2,10-28.6,16.9-39.3c22.3-34.3,57.8-55.5,99-59.2c11.1-1,25.5-0.1,36.9,2.2
		c8.9,1.8,24,6.9,31.6,10.8c11.4,5.7,26.3,16.3,33.9,24.2l3.3,3.4l-6.8,10c-28.5,41.8-74.5,71.3-124.3,79.5
		C475,541.6,457.2,542.4,442.9,541.1z M358.8,455c-0.5-0.8-1-1.7-1-2.2c0-1.7-4.3-6.6-7.1-8c-2.2-1.1-4.2-1.5-7.5-1.5
		c-4.1,0-4.9,0.2-8,2.4c-2.4,1.7-4,3.6-5.3,6.4c-1.8,3.7-2.1,3.9-4.5,3.9c-5.6,0-16-1.5-24.5-3.4c-36.9-8.5-69.9-31.1-90.5-61.9
		c-2.8-4.2-5.9-8.5-6.9-9.7c-2.5-2.9-11.2-20.1-14.1-28.1c-8.8-23.7-12.5-49.9-10.1-72.6c0.4-3.6,1-7.2,1.3-8
		c0.3-0.8,1.1-4.1,1.8-7.5c5.4-29.3,24.6-57.1,50.7-73.5c29.7-18.7,61.1-21.7,90.2-8.7c6.6,3,17.2,9.6,17.2,10.8
		c0,0.4-1.6,3.4-3.5,6.7c-5.9,9.8-12.9,25.5-16.2,36.5c-1,3.3-2.1,6.3-2.4,6.6c-0.3,0.3-3.2-0.2-6.3-1.2c-8.2-2.5-20.5-3.7-28.1-2.6
		c-31.8,4.6-56,28.5-61.1,60.5c-1.5,9.1,0,22.5,3.4,32.5c1.9,5.4,5.5,12.1,6.8,12.6c2.8,1.1,5.4-2.1,3.4-4.3
		c-3.1-3.6-6.2-12.1-7.8-21.7c-2.2-13.1,0.4-28.2,7-40.5c14.4-26.9,46.1-39.9,75.4-30.9c5.3,1.6,5.9,1.9,5.5,3.3
		c-1.2,4.8-4,21.9-4.6,28c-1.7,17.2,0,40.5,4.2,57.9c2.2,9.1,3.3,10.8,6.3,9.6c1.9-0.7,1.9-2.3,0.2-9.2c-2.3-9.3-3.1-13.5-4.2-24.7
		c-3.1-30.5,1.7-61.7,14.1-90.6c3.6-8.5,10.3-21.1,11.1-21.1c1.3,0,8.9,15.3,13.8,27.7c13.5,34,16,74.3,7,110
		c-1.5,5.8-1.3,7.3,0.7,8c2.8,0.9,3.9-0.7,5.7-8.5c4.7-19.3,6.4-41,4.6-59.1c-0.6-6.1-3.4-23.3-4.6-28c-0.3-1.4,0.2-1.7,5.4-3.3
		c29.5-9,61.1,4,75.6,30.9c10,18.6,10.4,41.7,1.1,59.2c-2.7,5.1-2.9,6.7-0.7,7.4c2.2,0.7,3.5-0.4,5.7-4.7c6-11.9,8.8-28.5,6.8-40.6
		c-5.3-32-29.3-55.7-61-60.3c-7.6-1.1-19.9,0-28.1,2.6c-3.2,1-6,1.5-6.3,1.2c-0.3-0.3-1.2-2.9-2.1-5.8
		c-3.2-10.8-10.6-27.5-16.5-37.4c-2-3.2-3.5-6.1-3.5-6.4c0-1,10.8-7.7,17.2-10.7c13.8-6.4,31.8-9.5,45.9-7.9
		c32.9,3.7,63.9,24.2,81.7,53.8c6.6,11.1,9.8,18.6,13,30.9c1.6,6.1,3.4,24.4,3.4,34.4c0.1,28.6-8.2,59-22.8,83.7
		c-1.2,2.1-2.3,4.1-2.3,4.5c-0.3,1.8-11,16.7-16.7,23.2c-24.8,28.3-61,46.8-98,50C360.1,456.4,359.7,456.4,358.8,455z M327.7,447.1
		c1.9-0.4,2.1-0.6,1.8-3.2c-0.5-5.2-3.9-9.9-9-12.1c-5.4-2.4-9.9,0.1-10.1,5.5c-0.1,2.3,0.4,3.2,2.3,5.3
		C317.1,446.9,321.9,448.4,327.7,447.1z M369.8,446.4c7.3-3.7,9.9-8.9,6.4-13.1c-2.4-2.8-5.7-3.5-8.4-1.8c-5.2,3.2-8,7.2-8.8,12.5
		c-0.4,2.8-0.4,2.9,1.5,3.2C364.7,447.9,367.4,447.7,369.8,446.4z M346.7,437c3.3-3.7,4.4-6.5,4.5-10.7c0-3-0.3-4.3-1.6-6
		c-3.1-4.2-8.9-4.4-11.5-0.3c-1.5,2.2-1.6,9.3-0.3,11.9c1.2,2.4,5.5,7.6,6.2,7.6C344.3,439.4,345.5,438.3,346.7,437z M172.5,342.3
		c-35.4-6-66.6-27.6-84.1-58.2c-9.3-16.2-14-31.5-15.7-50.9l-0.8-9.5l3.4-3.5c9.5-9.7,24.9-20.8,38.2-27.5
		c34.4-17.3,72.2-20.5,108.2-9.3l8.1,2.5l-3.3,2.3c-21.5,15.1-38.2,36.5-45.4,58.1c-0.7,2-1.5,3.8-1.8,4c-0.3,0.2-4.9-1.2-10.1-3.2
		c-13.2-4.8-30.6-9.8-43.2-12.3c-10.1-2-29.9-4.9-33.9-4.9c-2,0-4,1.6-4,3.1c0,2.2,2.1,2.8,12.5,4.1c21.7,2.5,44.7,8,65.5,15.5
		c5.8,2.1,10.5,4.2,10.5,4.6c0,0.4-0.8,5.1-1.7,10.5c-3.8,22.3-2.9,45.5,2.8,68.3c0.9,3.7,1.7,6.9,1.7,7.1
		C179.4,343.4,178.8,343.3,172.5,342.3z M507.9,343c0-0.3,0.7-3.5,1.7-7.2c5.6-22.8,6.6-45.9,2.8-68.2c-1.3-7.6-1.5-9.8-0.8-10.5
		c1.3-1.3,18.9-7.5,30.9-11c12.9-3.7,31.2-7.3,45.2-9c10.1-1.2,12.2-1.9,12.2-4.1c0-1.4-2-3.1-3.7-3.1c-0.8,0-6.5,0.6-12.6,1.4
		c-20.9,2.7-42.7,8-63.5,15.6c-5.7,2.1-10.6,3.6-10.9,3.4c-0.3-0.2-1.1-2-1.8-4c-7.1-21.3-25.2-44.6-44.7-57.6c-2.2-1.4-4-2.7-4-2.8
		c0-0.4,13.2-4.5,18.7-5.7c10.4-2.4,18.6-3.2,32.5-3.1c24.3,0.1,43.2,4.7,64.7,15.6c13.8,7,28.2,17.4,38,27.4l4.1,4.2l-0.8,9
		c-1.3,14.5-4.2,26.4-9.3,38.1c-15.9,36.4-47.8,62.4-86.4,70.1C513.3,342.9,507.9,343.5,507.9,343z M339.5,184.5
		c-2.3-1.7-5.3-3.6-6.8-4.2c-1.4-0.7-2.5-1.5-2.4-1.9c0.4-1.5,8-4.7,12-5c4.5-0.4,10.6,1.5,13.8,4.2l1.8,1.5l-3.4,2
		c-1.9,1.1-4.8,3-6.6,4.3c-1.8,1.3-3.5,2.3-3.8,2.3C343.9,187.6,341.8,186.2,339.5,184.5z M320.1,174.5c-14.5-5.7-34.1-7.5-49.8-4.5
		c-2.7,0.5-5,0.8-5.1,0.7c-0.2-0.1,0.3-4.4,0.9-9.4c5.9-44.8,31.5-85.1,69.5-109.3l8.3-5.3l7.8,5c33.1,21.1,56.9,53.9,66.5,91.5
		c2.3,9.2,5.1,26.4,4.3,27.1c-0.2,0.2-2.8-0.1-5.7-0.6c-7.5-1.3-23.9-1.2-31.8,0.3c-3.5,0.6-9.6,2.3-13.5,3.6
		c-3.9,1.3-7.3,2.4-7.6,2.4c-0.2,0-1.8-1.1-3.5-2.5c-3.6-3-9.2-5.8-11.8-5.8l-1.9,0v-50.1c0-44.6-0.1-50.2-1.1-51.2
		c-0.6-0.6-1.5-1.1-1.9-1.1c-2.6,0-2.6-0.4-2.6,51.3c0,54.2,0.2,51-3.3,51c-2,0-8.2,3.2-11,5.8c-1.5,1.4-2.9,2.5-3,2.5
		C323.7,175.9,322,175.2,320.1,174.5z"/>
</g>
</svg>
